<svg width="141.59000549316406px" height="398.24001464843747px" xmlns="http://www.w3.org/2000/svg" viewBox="179.20499725341796 -124.12000732421873 141.59000549316406 398.24001464843747" style="background: none;" preserveAspectRatio="xMidYMid"><defs><filter id="editing-hover" x="-100%" y="-100%" width="300%" height="300%"><feFlood flood-color="#052b4a" result="flood"></feFlood><feComposite operator="in" in2="SourceAlpha" in="flood" result="shadow"></feComposite><feOffset dx="-4" dy="-4" in="SourceGraphic" result="offset-1"></feOffset><feOffset dx="4" dy="4" in="shadow" result="offset-2"></feOffset><feMerge><feMergeNode in="offset-2"></feMergeNode><feMergeNode in="offset-1"></feMergeNode></feMerge></filter></defs><g filter="url(#editing-hover)"><g transform="translate(205.2666630744934, 147.9793701171875)"><path d="M38.60-101.60L38.60-101.60L38.60-101.60Q35.80-90.80 31.70-79.20L31.70-79.20L31.70-79.20Q27.60-67.60 23.20-57.20L23.20-57.20L23.20-57.20Q23-56.80 22.20-55.30L22.20-55.30L22.20-55.30Q21.40-53.80 21-54L21-54L21-54Q20.40-54 20.50-55.70L20.50-55.70L20.50-55.70Q20.60-57.40 20.80-58L20.80-58L20.80-58Q21-60.40 21.70-64L21.70-64L21.70-64Q22.40-67.60 23.10-71.40L23.10-71.40L23.10-71.40Q23.80-75.20 24.70-78.80L24.70-78.80L24.70-78.80Q25.60-82.40 26.40-85L26.40-85L26.40-85Q27-86.80 28.60-94L28.60-94L28.60-94Q30.20-101.20 31.70-110L31.70-110L31.70-110Q33.20-118.80 34-127L34-127L34-127Q34.80-135.20 34-139L34-139L34-139Q33.60-140.80 34-140.80L34-140.80L34-140.80Q34.40-140.80 34.70-140.30L34.70-140.30L34.70-140.30Q35-139.80 35.40-139.40L35.40-139.40L35.40-139.40Q37.60-136 38.80-131.20L38.80-131.20L38.80-131.20Q40-126.40 40.30-121.10L40.30-121.10L40.30-121.10Q40.60-115.80 40.10-110.60L40.10-110.60L40.10-110.60Q39.60-105.40 38.60-101.60ZM29.60-144.40L29.60-144.40L29.60-144.40Q32.40-134.80 31.40-124.50L31.40-124.50L31.40-124.50Q30.40-114.20 27.50-103.40L27.50-103.40L27.50-103.40Q24.60-92.60 21-81.40L21-81.40L21-81.40Q17.40-70.20 14.80-59.20L14.80-59.20L14.80-59.20Q12.40-48.80 11.50-38.60L11.50-38.60L11.50-38.60Q10.60-28.40 12.80-17.80L12.80-17.80L12.80-17.80Q13.40-18.80 14.10-19.20L14.10-19.20L14.10-19.20Q14.80-19.60 15.60-20.20L15.60-20.20L15.60-20.20Q15.60-22.60 15.60-25.10L15.60-25.10L15.60-25.10Q15.60-27.60 15.80-29.60L15.80-29.60L15.80-29.60Q16-31.60 16.40-32.80L16.40-32.80L16.40-32.80Q16.80-34 17.60-34L17.60-34L17.60-34Q17.80-34 18.10-33L18.10-33L18.10-33Q18.40-32 18.60-30.70L18.60-30.70L18.60-30.70Q18.80-29.40 19-28.10L19-28.10L19-28.10Q19.20-26.80 19.20-26.40L19.20-26.40L19.20-26.40Q19.40-24.80 19.40-24L19.40-24L19.40-24Q19.40-23.20 19.80-22.20L19.80-22.20L19.80-22.20Q20.20-22.40 21.10-22.70L21.10-22.70L21.10-22.70Q22-23 23-23.20L23-23.20L23-23.20Q24-37.60 27.60-51.90L27.60-51.90L27.60-51.90Q31.20-66.20 35.60-80.80L35.60-80.80L35.60-80.80Q38.40-90.20 40.90-100.10L40.90-100.10L40.90-100.10Q43.40-110 43.80-121.40L43.80-121.40L43.80-121.40Q43.80-122.40 44.40-122.40L44.40-122.40L44.40-122.40Q44.60-122.40 44.60-122L44.60-122L44.60-122Q44.60-121.60 45-121.20L45-121.20L45-121.20Q47.20-115.80 46.60-107.10L46.60-107.10L46.60-107.10Q46-98.40 44.20-89.10L44.20-89.10L44.20-89.10Q42.40-79.80 40-71.10L40-71.10L40-71.10Q37.60-62.40 36.40-57.20L36.40-57.20L36.40-57.20Q34.20-48.80 31.40-40.10L31.40-40.10L31.40-40.10Q28.60-31.40 26-23.80L26-23.80L26-23.80Q29.80-24.40 34.10-24.60L34.10-24.60L34.10-24.60Q38.40-24.80 42-24.70L42-24.70L42-24.70Q45.60-24.60 48.30-24.50L48.30-24.50L48.30-24.50Q51-24.40 51.80-24.40L51.80-24.40L51.80-24.40Q57.60-24.20 63.80-23L63.80-23L63.80-23Q70-21.80 74.60-21L74.60-21L74.60-21Q76.20-20.60 76.20-20.20L76.20-20.20L76.20-20.20Q76.20-19.80 75.60-19.60L75.60-19.60L75.60-19.60Q75-19.40 74.60-19.20L74.60-19.20L74.60-19.20Q65.80-16.40 56.90-16.90L56.90-16.90L56.90-16.90Q48-17.40 38.40-18.40L38.40-18.40L38.40-18.40Q34.80-18.80 30.90-19L30.90-19L30.90-19Q27-19.20 23.20-18.90L23.20-18.90L23.20-18.90Q19.40-18.60 15.90-17.50L15.90-17.50L15.90-17.50Q12.40-16.40 9.60-14L9.60-14L9.60-14Q5.20-25.40 5.80-38L5.80-38L5.80-38Q6.40-50.60 9.40-63.20L9.40-63.20L9.40-63.20Q12-74.20 15.40-85.10L15.40-85.10L15.40-85.10Q18.80-96 21.70-106.30L21.70-106.30L21.70-106.30Q24.60-116.60 26.50-126.20L26.50-126.20L26.50-126.20Q28.40-135.80 28.20-144.60L28.20-144.60L28.20-144.60Q28.60-145.80 28.80-145.80L28.80-145.80L28.80-145.80Q29-146 29.20-145.30L29.20-145.30L29.20-145.30Q29.40-144.60 29.60-144.40ZM85.40-25L85.40-25L85.40-25Q85.80-25.60 86.10-24.90L86.10-24.90L86.10-24.90Q86.40-24.20 86-23.20L86-23.20L86-23.20Q84.80-20.20 83.70-18L83.70-18L83.70-18Q82.60-15.80 79.40-13.60L79.40-13.60L79.40-13.60Q78-12.60 76-11.80L76-11.80L76-11.80Q74-11 72.20-10.60L72.20-10.60L72.20-10.60Q70.40-10.20 69-10.20L69-10.20L69-10.20Q67.60-10.20 67.60-11L67.60-11L67.60-11Q67.40-11.60 69.30-12.60L69.30-12.60L69.30-12.60Q71.20-13.60 72-14L72-14L72-14Q73.60-15 75.20-15.90L75.20-15.90L75.20-15.90Q76.80-16.80 78.40-18L78.40-18L78.40-18Q80-19.60 81.90-21.20L81.90-21.20L81.90-21.20Q83.80-22.80 85.40-25ZM86.40-19L86.40-19L86.40-19Q87-20 87-19.20L87-19.20L87-19.20Q87-18.40 86.80-18L86.80-18L86.80-18Q83.80-11.20 79.90-7.60L79.90-7.60L79.90-7.60Q76-4 71.50-2.30L71.50-2.30L71.50-2.30Q67-0.60 62.10-0.30L62.10-0.30L62.10-0.30Q57.20 0 52.40 0L52.40 0L52.40 0Q39-0.20 26.30-1.10L26.30-1.10L26.30-1.10Q13.60-2 3.40 0L3.40 0L3.40 0Q3 0 2.60 0.10L2.60 0.10L2.60 0.10Q2.20 0.20 3-0.40L3-0.40L3-0.40Q7.80-5.20 13.80-6.20L13.80-6.20L13.80-6.20Q19.80-7.20 26.50-6.50L26.50-6.50L26.50-6.50Q33.20-5.80 40.20-4.40L40.20-4.40L40.20-4.40Q47.20-3 53.80-2.80L53.80-2.80L53.80-2.80Q62.20-2.60 71.10-6.30L71.10-6.30L71.10-6.30Q80-10 86.40-19ZM55.80-9.80L55.80-9.80L55.80-9.80Q55.80-9.40 55-9.20L55-9.20L55-9.20Q54.20-9 53.80-9L53.80-9L53.80-9Q50.80-8.40 45.70-8.20L45.70-8.20L45.70-8.20Q40.60-8 36.40-8.40L36.40-8.40L36.40-8.40Q35.40-8.40 31.80-8.70L31.80-8.70L31.80-8.70Q28.20-9 23.50-8.90L23.50-8.90L23.50-8.90Q18.80-8.80 14-7.80L14-7.80L14-7.80Q9.20-6.80 5.80-4.40L5.80-4.40L5.80-4.40Q5-3.60 4.60-4.20L4.60-4.20L4.60-4.20Q4.60-4.40 4.90-5.10L4.90-5.10L4.90-5.10Q5.20-5.80 5.40-6L5.40-6L5.40-6Q8.20-10.40 14.10-12.70L14.10-12.70L14.10-12.70Q20-15 26-15.60L26-15.60L26-15.60Q32.40-16.20 39.80-14.90L39.80-14.90L39.80-14.90Q47.20-13.60 53.80-11.60L53.80-11.60L53.80-11.60Q54-11.60 54.90-11L54.90-11L54.90-11Q55.80-10.40 55.80-9.80Z" fill="#ffd5af"></path></g></g><style>text {
  font-size: 64px;
  font-family: Arial Black;
  dominant-baseline: central;
  text-anchor: middle;
}</style></svg>